<?xml version="1.0" encoding="UTF-8" standalone="no"?>
<!-- Created with Inkscape (http://www.inkscape.org/) -->

<svg
   xmlns:dc="http://purl.org/dc/elements/1.1/"
   xmlns:cc="http://creativecommons.org/ns#"
   xmlns:rdf="http://www.w3.org/1999/02/22-rdf-syntax-ns#"
   xmlns:svg="http://www.w3.org/2000/svg"
   xmlns="http://www.w3.org/2000/svg"
   xmlns:sodipodi="http://sodipodi.sourceforge.net/DTD/sodipodi-0.dtd"
   xmlns:inkscape="http://www.inkscape.org/namespaces/inkscape"
   width="210mm"
   height="297mm"
   viewBox="0 0 210 297"
   version="1.1"
   id="svg8"
   inkscape:version="0.92.2 (5c3e80d, 2017-08-06)"
   sodipodi:docname="Label.svg">
  <defs
     id="defs2" />
  <sodipodi:namedview
     id="base"
     pagecolor="#ffffff"
     bordercolor="#666666"
     borderopacity="1.0"
     inkscape:pageopacity="0.0"
     inkscape:pageshadow="2"
     inkscape:zoom="3.3851562"
     inkscape:cx="211.07588"
     inkscape:cy="691.14423"
     inkscape:document-units="mm"
     inkscape:current-layer="layer1"
     showgrid="false"
     inkscape:window-width="2560"
     inkscape:window-height="1411"
     inkscape:window-x="-9"
     inkscape:window-y="-9"
     inkscape:window-maximized="1" />
  <metadata
     id="metadata5">
    <rdf:RDF>
      <cc:Work
         rdf:about="">
        <dc:format>image/svg+xml</dc:format>
        <dc:type
           rdf:resource="http://purl.org/dc/dcmitype/StillImage" />
        <dc:title></dc:title>
      </cc:Work>
    </rdf:RDF>
  </metadata>
  <g
     inkscape:label="Ebene 1"
     inkscape:groupmode="layer"
     id="layer1">
    <text
       xml:space="preserve"
       style="font-style:normal;font-variant:normal;font-weight:normal;font-stretch:normal;font-size:2.82222223px;line-height:1;font-family:'Futura Lt BT';-inkscape-font-specification:'Futura Lt BT';font-variant-ligatures:normal;font-variant-caps:normal;font-variant-numeric:normal;text-align:center;letter-spacing:0px;word-spacing:0px;writing-mode:lr-tb;text-anchor:middle;fill:#000000;fill-opacity:1;stroke:none;stroke-width:0.26458332"
       x="44.095543"
       y="135.38103"
       id="text13808"><tspan
         sodipodi:role="line"
         id="tspan13806"
         x="44.095543"
         y="137.52525"
         style="stroke-width:0.26458332" /></text>
    <g
       id="g4903">
      <rect
         y="81.151009"
         x="27.994616"
         height="49.900002"
         width="60"
         id="rect9230"
         style="opacity:1;fill:none;fill-opacity:1;fill-rule:nonzero;stroke:#000000;stroke-width:0.09999999;stroke-linecap:round;stroke-linejoin:round;stroke-miterlimit:4;stroke-dasharray:none;stroke-dashoffset:0;stroke-opacity:1;paint-order:markers fill stroke" />
      <g
         transform="translate(2.8956793e-7,-0.86413481)"
         id="g4880">
        <g
           id="g13762"
           transform="matrix(2.1190835,0,0,2.1190836,-5.43501,-10.200632)"
           style="stroke-width:0.4719021">
          <path
             inkscape:connector-curvature="0"
             id="path13684-1"
             d="m 29.938467,45.21738 c -1.019709,0 -1.726438,0.175852 -2.121318,0.527616 -0.395168,0.352033 -0.49231,1.189231 -0.592212,1.81901 -0.0609,0.383609 -0.0606,0.781654 0,1.165305 0.09991,0.632409 0.196922,1.475377 0.592212,1.827278 0.39502,0.3511 1.101609,0.527098 2.121318,0.527098 h 0.926042 c 1.80975,0 2.714045,-0.514096 2.714045,-1.543058 v -0.512112 c 0,-0.540541 -0.177713,-0.941141 -0.532783,-1.200962 -0.3556,-0.259559 -0.917335,-0.389123 -1.685685,-0.389123 h -0.764294 c -0.467251,0 -0.858956,0.08586 -1.174607,0.258901 v -0.802537 c 0,-0.178589 0.04123,-0.291381 0.124024,-0.338479 0.08229,-0.0474 0.271391,-0.07132 0.56534,-0.07132 h 0.517282 c 0.236799,0 0.394771,0.02176 0.473874,0.06356 0.07907,0.04207 0.117822,0.131154 0.117822,0.267684 v 0.14986 h 2.176094 v -0.417544 c 0,-0.435772 -0.211762,-0.766234 -0.635622,-0.992188 -0.423338,-0.225954 -1.055171,-0.338997 -1.89549,-0.338997 z m 7.609356,0.07131 -3.112474,3.094384 -0.01085,1.559078 h 3.931026 v 1.070737 h 2.17506 v -1.070737 h 0.926042 V 48.674531 H 40.530585 V 45.28869 Z m 0.807701,1.488281 v 1.89756 h -1.88464 z m -8.147306,1.920814 h 0.419613 c 0.323051,0 0.533336,0.02001 0.629936,0.05891 0.09709,0.03943 0.145727,0.132717 0.145727,0.280088 v 0.417028 c 0,0.157959 -0.04746,0.256471 -0.14056,0.295071 -0.0934,0.0395 -0.304903,0.05943 -0.635103,0.05943 h -0.419613 c -0.323319,0 -0.53534,-0.02023 -0.63562,-0.05943 -0.100811,-0.03889 -0.150894,-0.137639 -0.150894,-0.29559 v -0.416506 c 0,-0.1524 0.05008,-0.247404 0.150894,-0.283705 0.10028,-0.037 0.312032,-0.05529 0.63562,-0.05529 z"
             style="fill:#00008e;fill-opacity:1;stroke:none;stroke-width:0;stroke-miterlimit:4;stroke-dasharray:none;stroke-opacity:1" />
          <path
             inkscape:connector-curvature="0"
             id="path13680-6"
             d="m 24.952463,48.526928 h -1.759744 v 1.4433 h 3.163094 z"
             style="fill:#ff0000;fill-opacity:1;stroke:#000000;stroke-width:0;stroke-miterlimit:4;stroke-dasharray:none;stroke-opacity:1" />
          <path
             inkscape:connector-curvature="0"
             id="path13678-5"
             d="m 26.355548,46.787558 h -3.163094 v 1.44303 h 1.7399 z"
             style="fill:#00008e;fill-opacity:1;stroke:#000000;stroke-width:0;stroke-miterlimit:4;stroke-dasharray:none;stroke-opacity:1" />
          <path
             inkscape:connector-curvature="0"
             id="path13654-4"
             d="m 23.093765,46.688638 v -1.858167 c -0.375444,-0.09896 -0.632884,-0.138642 -1.008063,-0.138642 -1.957387,0 -3.677179,1.641209 -3.677179,3.677179 0,2.09577 1.739371,3.6576 3.696758,3.6576 0.355865,0 0.553509,-0.0397 0.988484,-0.15875 v -1.89759 c -0.43524,0.21722 -0.652198,0.27649 -1.008063,0.27649 -1.087437,0 -1.918229,-0.90911 -1.918229,-1.91744 0,-1.04748 0.810683,-1.93754 1.898121,-1.93754 0.375973,0 0.69215,0.0992 1.028171,0.29686 z"
             style="fill:#00008e;fill-opacity:1;stroke:#000000;stroke-width:0;stroke-miterlimit:4;stroke-dasharray:none;stroke-opacity:1" />
        </g>
        <g
           id="g13804"
           transform="translate(-40.50368,-25.077564)">
          <text
             id="text13794"
             y="134.58383"
             x="98.481415"
             style="font-style:normal;font-variant:normal;font-weight:normal;font-stretch:normal;font-size:2.82222223px;line-height:1;font-family:'Futura Lt BT';-inkscape-font-specification:'Futura Lt BT';font-variant-ligatures:normal;font-variant-caps:normal;font-variant-numeric:normal;text-align:center;letter-spacing:0px;word-spacing:0px;writing-mode:lr-tb;text-anchor:middle;fill:#000000;fill-opacity:1;stroke:none;stroke-width:0.26458332"
             xml:space="preserve"><tspan
               style="font-size:9.87777805px;stroke-width:0.26458332"
               y="134.58383"
               x="98.481415"
               id="tspan13792"
               sodipodi:role="line">NEW PSU</tspan></text>
          <text
             id="text13798"
             y="138.96077"
             x="114.74433"
             style="font-style:normal;font-variant:normal;font-weight:normal;font-stretch:normal;font-size:2.82222223px;line-height:1;font-family:'Futura Lt BT';-inkscape-font-specification:'Futura Lt BT';font-variant-ligatures:normal;font-variant-caps:normal;font-variant-numeric:normal;text-align:center;letter-spacing:0px;word-spacing:0px;writing-mode:lr-tb;text-anchor:middle;fill:#000000;fill-opacity:1;stroke:none;stroke-width:0.26458332"
             xml:space="preserve"><tspan
               style="stroke-width:0.26458332"
               y="138.96077"
               x="114.74433"
               id="tspan13796"
               sodipodi:role="line">Rev. 2</tspan></text>
        </g>
        <g
           id="g4859"
           transform="translate(0.16329461,4.6114376)">
          <text
             id="text13812"
             y="116.64062"
             x="72.439903"
             style="font-style:normal;font-variant:normal;font-weight:normal;font-stretch:normal;font-size:2.82222223px;line-height:1;font-family:'Futura Lt BT';-inkscape-font-specification:'Futura Lt BT';font-variant-ligatures:normal;font-variant-caps:normal;font-variant-numeric:normal;text-align:center;letter-spacing:0px;word-spacing:0px;writing-mode:lr-tb;text-anchor:middle;fill:#000000;fill-opacity:1;stroke:none;stroke-width:0.26458332"
             xml:space="preserve"><tspan
               id="tspan4803"
               style="text-align:end;text-anchor:end;stroke-width:0.26458332"
               y="118.78484"
               x="72.439903"
               sodipodi:role="line"></tspan><tspan
               id="tspan4821"
               style="text-align:end;text-anchor:end;stroke-width:0.26458332"
               y="121.60706"
               x="72.439903"
               sodipodi:role="line">OUTPUT: +5VDC @ 2A</tspan><tspan
               id="tspan13814"
               style="text-align:end;text-anchor:end;stroke-width:0.26458332"
               y="124.42929"
               x="72.439903"
               sodipodi:role="line">9VAC @ 2A</tspan></text>
          <text
             id="text13812-7"
             y="108.58482"
             x="67.256416"
             style="font-style:normal;font-variant:normal;font-weight:normal;font-stretch:normal;font-size:2.82222223px;line-height:1;font-family:'Futura Lt BT';-inkscape-font-specification:'Futura Lt BT';font-variant-ligatures:normal;font-variant-caps:normal;font-variant-numeric:normal;text-align:center;letter-spacing:0px;word-spacing:0px;writing-mode:lr-tb;text-anchor:middle;fill:#000000;fill-opacity:1;stroke:none;stroke-width:0.26458332"
             xml:space="preserve"><tspan
               id="tspan4803-3"
               style="text-align:end;text-anchor:end;stroke-width:0.26458332"
               y="110.72905"
               x="67.256416"
               sodipodi:role="line" /><tspan
               id="tspan13814-8"
               style="text-align:end;text-anchor:end;stroke-width:0.26458332"
               y="113.55127"
               x="67.256416"
               sodipodi:role="line">INPUT: 230VAC</tspan><tspan
               id="tspan4849"
               style="text-align:end;text-anchor:end;stroke-width:0.26458332"
               y="116.3735"
               x="67.256416"
               sodipodi:role="line">36VA</tspan></text>
        </g>
      </g>
    </g>
  </g>
</svg>
